<svg width="307" height="86" viewBox="0 0 307 86" fill="none" xmlns="http://www.w3.org/2000/svg">
<path d="M173.026 30.7327H174.651L176.656 36.0061C176.772 36.3173 176.875 36.617 176.968 36.9051C177.071 37.1933 177.164 37.4757 177.244 37.7523C177.325 38.0174 177.388 38.2768 177.434 38.5304H177.504C177.573 38.2422 177.682 37.8676 177.832 37.4065C177.982 36.9339 178.138 36.4614 178.299 35.9888L180.184 30.7327H181.826L177.832 41.2794C177.613 41.8557 177.354 42.3571 177.054 42.7836C176.766 43.2216 176.409 43.5559 175.982 43.7864C175.567 44.0285 175.06 44.1495 174.461 44.1495C174.184 44.1495 173.942 44.1322 173.735 44.0976C173.527 44.0746 173.348 44.0458 173.199 44.0112V42.8009C173.325 42.824 173.475 42.847 173.648 42.8701C173.832 42.8931 174.023 42.9046 174.219 42.9046C174.576 42.9046 174.881 42.8355 175.135 42.6972C175.4 42.5704 175.625 42.3802 175.809 42.1266C175.994 41.8845 176.149 41.5964 176.276 41.2621L176.76 40.0346L173.026 30.7327Z" fill="#98A2B3"/>
<path d="M165.959 30.0584C165.959 30.4503 165.948 30.8192 165.925 31.165C165.913 31.4993 165.896 31.7644 165.873 31.9603H165.959C166.224 31.5684 166.588 31.2399 167.049 30.9748C167.51 30.7097 168.103 30.5771 168.829 30.5771C169.982 30.5771 170.904 30.9806 171.596 31.7874C172.299 32.5827 172.65 33.7757 172.65 35.3664C172.65 36.4268 172.489 37.3143 172.166 38.029C171.855 38.7436 171.411 39.2796 170.835 39.6369C170.259 39.9942 169.59 40.1729 168.829 40.1729C168.103 40.1729 167.51 40.0403 167.049 39.7752C166.588 39.5101 166.224 39.1931 165.959 38.8243H165.838L165.527 40H164.438V26.8599H165.959V30.0584ZM168.57 31.8393C167.913 31.8393 167.394 31.9661 167.014 32.2197C166.634 32.4617 166.363 32.8421 166.201 33.3608C166.04 33.8679 165.959 34.5192 165.959 35.3145V35.3837C165.959 36.5248 166.144 37.4008 166.513 38.0117C166.893 38.6111 167.59 38.9107 168.605 38.9107C169.435 38.9107 170.051 38.6053 170.455 37.9944C170.87 37.3835 171.077 36.5017 171.077 35.3491C171.077 34.1849 170.87 33.3089 170.455 32.7211C170.051 32.1332 169.423 31.8393 168.57 31.8393Z" fill="#98A2B3"/>
<path d="M154.285 30.5599C155.08 30.5599 155.76 30.7328 156.325 31.0786C156.902 31.4244 157.34 31.9142 157.639 32.5482C157.95 33.1706 158.106 33.9025 158.106 34.744V35.6603H151.761C151.784 36.7092 152.049 37.5103 152.556 38.0636C153.075 38.6053 153.795 38.8762 154.717 38.8762C155.305 38.8762 155.824 38.8243 156.273 38.7206C156.734 38.6053 157.207 38.444 157.691 38.2365V39.5678C157.218 39.7753 156.752 39.9251 156.291 40.0173C155.83 40.1211 155.282 40.1729 154.648 40.1729C153.772 40.1729 152.994 39.9943 152.314 39.6369C151.645 39.2796 151.121 38.7494 150.741 38.0463C150.372 37.3317 150.187 36.4614 150.187 35.4356C150.187 34.4212 150.355 33.551 150.689 32.8248C151.035 32.0987 151.513 31.5396 152.124 31.1477C152.746 30.7558 153.467 30.5599 154.285 30.5599ZM154.268 31.8047C153.542 31.8047 152.965 32.041 152.539 32.5136C152.124 32.9747 151.876 33.6201 151.795 34.45H156.515C156.515 33.9198 156.435 33.4588 156.273 33.0669C156.112 32.675 155.864 32.3695 155.53 32.1505C155.207 31.92 154.786 31.8047 154.268 31.8047Z" fill="#98A2B3"/>
<path d="M143.613 40.1729C142.461 40.1729 141.539 39.7752 140.847 38.9799C140.155 38.1731 139.81 36.9743 139.81 35.3837C139.81 33.793 140.155 32.5943 140.847 31.7874C141.55 30.969 142.478 30.5598 143.631 30.5598C144.115 30.5598 144.535 30.6232 144.893 30.75C145.25 30.8653 145.561 31.0267 145.826 31.2341C146.091 31.4416 146.316 31.6721 146.501 31.9257H146.604C146.593 31.7759 146.57 31.5569 146.535 31.2687C146.512 30.969 146.501 30.7327 146.501 30.5598V26.8599H148.022V40H146.795L146.57 38.7551H146.501C146.316 39.0202 146.091 39.2623 145.826 39.4813C145.561 39.6888 145.244 39.8559 144.875 39.9827C144.518 40.1095 144.097 40.1729 143.613 40.1729ZM143.855 38.9107C144.835 38.9107 145.521 38.6456 145.913 38.1154C146.316 37.5737 146.518 36.7611 146.518 35.6776V35.4009C146.518 34.2483 146.328 33.3665 145.947 32.7556C145.567 32.1332 144.864 31.822 143.838 31.822C143.02 31.822 142.403 32.1505 141.988 32.8075C141.585 33.453 141.383 34.3232 141.383 35.4182C141.383 36.5248 141.585 37.3835 141.988 37.9944C142.403 38.6053 143.025 38.9107 143.855 38.9107Z" fill="#98A2B3"/>
<path d="M134.406 30.5771C135.535 30.5771 136.371 30.825 136.913 31.3206C137.455 31.8162 137.725 32.6058 137.725 33.6893V40H136.619L136.325 38.686H136.256C135.991 39.0203 135.714 39.3027 135.426 39.5332C135.149 39.7522 134.826 39.9136 134.458 40.0173C134.1 40.121 133.662 40.1729 133.144 40.1729C132.59 40.1729 132.089 40.0749 131.639 39.879C131.201 39.683 130.856 39.3833 130.602 38.9799C130.348 38.565 130.222 38.0463 130.222 37.4238C130.222 36.5017 130.585 35.7929 131.311 35.2972C132.037 34.7901 133.155 34.5134 134.665 34.4673L136.238 34.4155V33.8622C136.238 33.0899 136.071 32.5539 135.737 32.2542C135.403 31.9546 134.93 31.8047 134.319 31.8047C133.835 31.8047 133.374 31.8796 132.936 32.0295C132.498 32.1678 132.089 32.3292 131.709 32.5136L131.242 31.3725C131.645 31.1535 132.124 30.969 132.677 30.8192C133.23 30.6578 133.806 30.5771 134.406 30.5771ZM134.855 35.522C133.703 35.5681 132.902 35.7525 132.452 36.0753C132.014 36.398 131.795 36.8533 131.795 37.4411C131.795 37.9598 131.951 38.3402 132.262 38.5823C132.585 38.8243 132.994 38.9453 133.489 38.9453C134.273 38.9453 134.924 38.7321 135.443 38.3056C135.962 37.8676 136.221 37.1991 136.221 36.3V35.4701L134.855 35.522Z" fill="#98A2B3"/>
<path d="M121.123 40L117.06 29.1767H116.991C117.014 29.4072 117.031 29.7012 117.043 30.0585C117.066 30.4158 117.083 30.8077 117.095 31.2342C117.106 31.6491 117.112 32.0756 117.112 32.5136V40H115.677V27.6552H117.977L121.78 37.7697H121.85L125.722 27.6552H128.005V40H126.466V32.4099C126.466 32.0064 126.472 31.6088 126.483 31.2169C126.495 30.8135 126.512 30.4388 126.535 30.0931C126.558 29.7357 126.575 29.436 126.587 29.194H126.518L122.403 40H121.123Z" fill="#98A2B3"/>
<path d="M104 49C104 61.7025 93.7025 72 81 72C68.2975 72 58 61.7025 58 49C58 36.2975 68.2975 26 81 26C93.7025 26 104 36.2975 104 49Z" fill="#FD853A"/>
<g filter="url(#filter0_dd_258_724)">
<path d="M65.7506 53L74.3975 33.6H78.8318L87.5063 53H82.7949L75.7 35.8725H77.4738L70.3512 53H65.7506ZM70.074 48.8428L71.2658 45.434H81.2429L82.4623 48.8428H70.074Z" fill="white"/>
<path d="M85.8755 65.3325C84.5637 65.3325 83.3535 65.0924 82.2449 64.612C81.1548 64.1131 80.2587 63.411 79.5566 62.5057L82.0509 59.5125C82.5867 60.2146 83.1503 60.7505 83.7415 61.12C84.3327 61.471 84.9702 61.6465 85.6538 61.6465C87.4829 61.6465 88.3975 60.5749 88.3975 58.4317V49.2028H81.5798V45.6H92.8595V58.1823C92.8595 60.5842 92.2683 62.3764 91.0858 63.5588C89.9033 64.7413 88.1665 65.3325 85.8755 65.3325Z" fill="white"/>
</g>
<path d="M222.719 50.3046C226.865 50.3046 228.938 52.2307 228.938 56.083V61.8908C228.938 62.9663 229.348 63.6507 230.169 63.944C229.876 64.6871 229.329 65.0587 228.527 65.0587C227.94 65.0587 227.471 64.8533 227.119 64.4427C226.787 64.0125 226.62 63.4552 226.62 62.7707C225.388 64.4133 223.795 65.2346 221.839 65.2346C220.255 65.2346 219.004 64.8338 218.085 64.032C217.185 63.2107 216.735 62.1157 216.735 60.7468C216.735 59.3584 217.263 58.234 218.319 57.3736C219.395 56.5132 220.842 56.083 222.66 56.083C223.756 56.083 224.675 56.2003 225.418 56.435C226.024 56.6501 226.386 56.787 226.503 56.8456V55.555C226.503 54.3622 226.2 53.5213 225.594 53.0325C224.987 52.524 224.068 52.2698 222.836 52.2698C221.096 52.2698 219.747 52.9347 218.789 54.2644C217.967 54.1471 217.557 53.7658 217.557 53.1205C217.557 52.3774 218.065 51.7223 219.082 51.1552C220.099 50.5881 221.311 50.3046 222.719 50.3046ZM226.503 58.7229C225.271 58.1754 224.059 57.9016 222.866 57.9016C221.673 57.9016 220.754 58.1558 220.109 58.6642C219.463 59.1727 219.141 59.8375 219.141 60.6588C219.141 61.4606 219.414 62.1059 219.962 62.5948C220.529 63.0641 221.35 63.2987 222.426 63.2987C223.521 63.2987 224.469 62.9076 225.271 62.1254C226.092 61.3432 226.503 60.3948 226.503 59.2802V58.7229Z" fill="white"/>
<path d="M202.584 44.4381H202.789C203.532 44.4381 203.904 44.8097 203.904 45.5527V53.4724C204.236 52.612 204.803 51.8787 205.605 51.2725C206.407 50.6663 207.346 50.3632 208.421 50.3632C210.064 50.3632 211.374 50.8325 212.352 51.7712C213.329 52.6902 213.818 54.1862 213.818 56.259V63.8853C213.818 64.2764 213.73 64.56 213.554 64.736C213.378 64.912 213.095 65 212.704 65H212.469C211.745 65 211.384 64.6284 211.384 63.8853V56.4056C211.384 53.6875 210.21 52.3285 207.864 52.3285C206.632 52.3285 205.664 52.8369 204.96 53.8537C204.275 54.8706 203.933 56.1514 203.933 57.6963V63.8853C203.933 64.6284 203.552 65 202.789 65H202.584C202.193 65 201.909 64.912 201.733 64.736C201.557 64.56 201.469 64.2764 201.469 63.8853V45.5527C201.469 44.8097 201.841 44.4381 202.584 44.4381Z" fill="white"/>
<path d="M195.731 45.0834H195.995C196.758 45.0834 197.139 45.4452 197.139 46.1687V63.8267C197.139 66.2319 196.592 68.0603 195.497 69.3118C194.421 70.5829 192.906 71.2184 190.95 71.2184C189.777 71.2184 188.858 70.974 188.193 70.4851C187.528 69.9962 187.196 69.4291 187.196 68.7838C187.196 68.3732 187.303 68.0505 187.518 67.8159C187.733 67.5812 187.997 67.4639 188.31 67.4639C188.428 67.8745 188.76 68.2559 189.307 68.6078C189.835 68.9794 190.549 69.1652 191.449 69.1652C192.348 69.1652 193.091 68.7838 193.678 68.0212C194.284 67.2586 194.587 66.1831 194.587 64.7947V46.1687C194.587 45.4452 194.969 45.0834 195.731 45.0834Z" fill="white"/>
<path d="M176.577 50.5392H176.753C177.496 50.5392 177.867 50.901 177.867 51.6245V53.2084C178.2 52.4653 178.728 51.8005 179.451 51.2138C180.194 50.6272 180.986 50.3339 181.827 50.3339C182.668 50.3339 183.304 50.5001 183.734 50.8325C184.184 51.1649 184.408 51.5756 184.408 52.0645C184.408 52.5338 184.203 52.9053 183.792 53.1791C183.186 52.6707 182.541 52.4164 181.857 52.4164C180.644 52.4164 179.686 52.9151 178.982 53.9124C178.278 54.8901 177.926 56.1221 177.926 57.6082V63.8853C177.926 64.2764 177.838 64.56 177.662 64.736C177.486 64.912 177.203 65 176.811 65H176.577C176.186 65 175.902 64.912 175.726 64.736C175.55 64.56 175.462 64.2764 175.462 63.8853V51.6245C175.462 50.901 175.834 50.5392 176.577 50.5392Z" fill="white"/>
<path d="M165.367 50.3046C169.512 50.3046 171.585 52.2307 171.585 56.083V61.8908C171.585 62.9663 171.996 63.6507 172.817 63.944C172.524 64.6871 171.976 65.0587 171.174 65.0587C170.588 65.0587 170.119 64.8533 169.767 64.4427C169.434 64.0125 169.268 63.4552 169.268 62.7707C168.036 64.4133 166.442 65.2346 164.487 65.2346C162.903 65.2346 161.651 64.8338 160.732 64.032C159.833 63.2107 159.383 62.1157 159.383 60.7468C159.383 59.3584 159.911 58.234 160.967 57.3736C162.042 56.5132 163.489 56.083 165.308 56.083C166.403 56.083 167.322 56.2003 168.065 56.435C168.671 56.6501 169.033 56.787 169.151 56.8456V55.555C169.151 54.3622 168.847 53.5213 168.241 53.0325C167.635 52.524 166.716 52.2698 165.484 52.2698C163.744 52.2698 162.394 52.9347 161.436 54.2644C160.615 54.1471 160.204 53.7658 160.204 53.1205C160.204 52.3774 160.713 51.7223 161.73 51.1552C162.746 50.5881 163.959 50.3046 165.367 50.3046ZM169.151 58.7229C167.919 58.1754 166.706 57.9016 165.513 57.9016C164.321 57.9016 163.401 58.1558 162.756 58.6642C162.111 59.1727 161.788 59.8375 161.788 60.6588C161.788 61.4606 162.062 62.1059 162.609 62.5948C163.177 63.0641 163.998 63.2987 165.073 63.2987C166.168 63.2987 167.117 62.9076 167.919 62.1254C168.74 61.3432 169.151 60.3948 169.151 59.2802V58.7229Z" fill="white"/>
<path d="M136.953 50.5392H137.129C137.892 50.5392 138.273 50.9108 138.273 51.6538V52.8858C139.173 51.1845 140.551 50.3339 142.409 50.3339C143.602 50.3339 144.589 50.6566 145.371 51.3019C146.173 51.9276 146.721 52.8076 147.014 53.9418C147.327 52.8076 147.904 51.9178 148.745 51.2725C149.586 50.6272 150.553 50.3046 151.649 50.3046C155.012 50.3046 156.694 52.2698 156.694 56.2003V63.9147C156.694 64.6382 156.303 65 155.52 65H155.344C154.601 65 154.23 64.6382 154.23 63.9147V56.347C154.23 53.668 153.213 52.3285 151.179 52.3285C149.752 52.3285 148.774 52.8467 148.246 53.8831C147.738 54.9195 147.483 56.3274 147.483 58.1069V63.9147C147.483 64.6382 147.102 65 146.339 65H146.134C145.391 65 145.019 64.6382 145.019 63.9147V56.347C145.019 53.668 143.993 52.3285 141.94 52.3285C139.495 52.3285 138.273 54.2253 138.273 58.0189V63.9147C138.273 64.6382 137.892 65 137.129 65H136.953C136.21 65 135.839 64.6382 135.839 63.9147V51.6538C135.839 50.9108 136.21 50.5392 136.953 50.5392Z" fill="white"/>
<path d="M123.973 45.1127H124.296C124.785 45.1127 125.097 45.1714 125.234 45.2887C125.391 45.4061 125.488 45.4843 125.528 45.5234C125.586 45.5429 125.655 45.6212 125.733 45.758C125.831 45.8949 125.889 45.9829 125.909 46.022C125.948 46.0611 126.016 46.1785 126.114 46.374C126.212 46.5696 126.28 46.6967 126.32 46.7553C128.725 51.1161 130.944 56.7087 132.978 63.5333C133.037 63.768 133.066 63.9929 133.066 64.208C133.066 64.736 132.763 65 132.157 65H131.453C131.12 65 130.886 64.9413 130.749 64.824C130.631 64.7066 130.543 64.6186 130.485 64.56C130.426 64.5013 130.367 64.3938 130.309 64.2373C130.25 64.0613 130.211 63.9342 130.191 63.856C130.133 63.7387 129.937 63.0738 129.605 61.8614C129.292 60.6295 128.94 59.4464 128.549 58.3122H119.69C119.202 59.8179 118.82 61.0988 118.547 62.1547C118.273 63.2107 118.116 63.7778 118.077 63.856C118.058 63.9342 118.019 64.0613 117.96 64.2373C117.901 64.3938 117.843 64.5013 117.784 64.56C117.725 64.6186 117.647 64.6871 117.549 64.7653C117.393 64.9217 117.148 65 116.816 65H116.112C115.486 65 115.173 64.736 115.173 64.208C115.173 64.0711 115.212 63.8462 115.291 63.5333C117.324 56.7087 119.544 51.1161 121.949 46.7553C121.988 46.6967 122.057 46.5696 122.154 46.374C122.252 46.1785 122.311 46.0611 122.33 46.022C122.37 45.9829 122.428 45.8949 122.506 45.758C122.604 45.6212 122.673 45.5429 122.712 45.5234C122.77 45.4843 122.849 45.4256 122.946 45.3474C123.044 45.2692 123.132 45.2203 123.21 45.2007C123.484 45.1421 123.738 45.1127 123.973 45.1127ZM124.12 47.8993C122.849 50.1481 121.617 52.9151 120.424 56.2003H127.845C127.141 54.2644 125.899 51.4974 124.12 47.8993Z" fill="white"/>
<defs>
<filter id="filter0_dd_258_724" x="61.7506" y="33.6" width="35.1089" height="39.7325" filterUnits="userSpaceOnUse" color-interpolation-filters="sRGB">
<feFlood flood-opacity="0" result="BackgroundImageFix"/>
<feColorMatrix in="SourceAlpha" type="matrix" values="0 0 0 0 0 0 0 0 0 0 0 0 0 0 0 0 0 0 127 0" result="hardAlpha"/>
<feOffset dy="4"/>
<feGaussianBlur stdDeviation="2"/>
<feComposite in2="hardAlpha" operator="out"/>
<feColorMatrix type="matrix" values="0 0 0 0 0 0 0 0 0 0 0 0 0 0 0 0 0 0 0.25 0"/>
<feBlend mode="normal" in2="BackgroundImageFix" result="effect1_dropShadow_258_724"/>
<feColorMatrix in="SourceAlpha" type="matrix" values="0 0 0 0 0 0 0 0 0 0 0 0 0 0 0 0 0 0 127 0" result="hardAlpha"/>
<feOffset dy="4"/>
<feGaussianBlur stdDeviation="2"/>
<feComposite in2="hardAlpha" operator="out"/>
<feColorMatrix type="matrix" values="0 0 0 0 0 0 0 0 0 0 0 0 0 0 0 0 0 0 0.25 0"/>
<feBlend mode="normal" in2="effect1_dropShadow_258_724" result="effect2_dropShadow_258_724"/>
<feBlend mode="normal" in="SourceGraphic" in2="effect2_dropShadow_258_724" result="shape"/>
</filter>
</defs>
</svg>
