<svg width="157" height="60" viewBox="0 0 157 60" fill="none" xmlns="http://www.w3.org/2000/svg">
<g clip-path="url(#clip0_100_4168)">
<path d="M52.804 30C52.804 42.7025 42.5065 53 29.804 53C17.1014 53 6.80396 42.7025 6.80396 30C6.80396 17.2975 17.1014 7 29.804 7C42.5065 7 52.804 17.2975 52.804 30Z" fill="#FD853A"/>
<g filter="url(#filter0_dd_100_4168)">
<path d="M14.5546 34L23.2014 14.6H27.6357L36.3103 34H31.5989L24.504 16.8725H26.2777L19.1551 34H14.5546ZM18.878 29.8428L20.0697 26.434H30.0469L31.2663 29.8428H18.878Z" fill="white"/>
<path d="M34.6795 46.3325C33.3676 46.3325 32.1575 46.0924 31.0489 45.612C29.9588 45.1131 29.0627 44.411 28.3606 43.5057L30.8549 40.5125C31.3907 41.2146 31.9542 41.7505 32.5455 42.12C33.1367 42.471 33.7741 42.6465 34.4577 42.6465C36.2869 42.6465 37.2015 41.5749 37.2015 39.4317V30.2028H30.3837V26.6H41.6635V39.1823C41.6635 41.5842 41.0722 43.3764 39.8897 44.5588C38.7073 45.7413 36.9705 46.3325 34.6795 46.3325Z" fill="white"/>
</g>
<path d="M133.013 39.7V20.3H141.411C143.147 20.3 144.644 20.5864 145.9 21.1591C147.157 21.7134 148.127 22.5171 148.81 23.5703C149.494 24.6234 149.836 25.8798 149.836 27.3394C149.836 28.7806 149.494 30.0277 148.81 31.0808C148.127 32.1155 147.157 32.91 145.9 33.4643C144.644 34.0186 143.147 34.2957 141.411 34.2957H135.508L137.503 32.328V39.7H133.013ZM145.346 39.7L140.496 32.6606H145.291L150.196 39.7H145.346ZM137.503 32.8268L135.508 30.7206H141.161C142.547 30.7206 143.582 30.4249 144.265 29.8337C144.949 29.224 145.291 28.3926 145.291 27.3394C145.291 26.2678 144.949 25.4364 144.265 24.8451C143.582 24.2539 142.547 23.9583 141.161 23.9583H135.508L137.503 21.8243V32.8268Z" fill="white"/>
<path d="M109.661 39.7L118.307 20.3H122.742L131.416 39.7H126.705L119.61 22.5726H121.384L114.261 39.7H109.661ZM113.984 35.5428L115.176 32.134H125.153L126.372 35.5428H113.984Z" fill="white"/>
<path d="M86.1566 39.7V20.3H89.8703L98.1292 33.9908H96.1615L104.282 20.3H107.968L108.023 39.7H103.811L103.783 26.7574H104.559L98.0738 37.6491H96.0506L89.4269 26.7574H90.3692V39.7H86.1566Z" fill="white"/>
<path d="M62.804 39.7L71.4508 20.3H75.8851L84.5597 39.7H79.8482L72.7534 22.5726H74.5271L67.4045 39.7H62.804ZM67.1274 35.5428L68.3191 32.134H78.2962L79.5157 35.5428H67.1274Z" fill="white"/>
</g>
<defs>
<filter id="filter0_dd_100_4168" x="10.5546" y="14.6" width="35.1089" height="39.7325" filterUnits="userSpaceOnUse" color-interpolation-filters="sRGB">
<feFlood flood-opacity="0" result="BackgroundImageFix"/>
<feColorMatrix in="SourceAlpha" type="matrix" values="0 0 0 0 0 0 0 0 0 0 0 0 0 0 0 0 0 0 127 0" result="hardAlpha"/>
<feOffset dy="4"/>
<feGaussianBlur stdDeviation="2"/>
<feComposite in2="hardAlpha" operator="out"/>
<feColorMatrix type="matrix" values="0 0 0 0 0 0 0 0 0 0 0 0 0 0 0 0 0 0 0.25 0"/>
<feBlend mode="normal" in2="BackgroundImageFix" result="effect1_dropShadow_100_4168"/>
<feColorMatrix in="SourceAlpha" type="matrix" values="0 0 0 0 0 0 0 0 0 0 0 0 0 0 0 0 0 0 127 0" result="hardAlpha"/>
<feOffset dy="4"/>
<feGaussianBlur stdDeviation="2"/>
<feComposite in2="hardAlpha" operator="out"/>
<feColorMatrix type="matrix" values="0 0 0 0 0 0 0 0 0 0 0 0 0 0 0 0 0 0 0.25 0"/>
<feBlend mode="normal" in2="effect1_dropShadow_100_4168" result="effect2_dropShadow_100_4168"/>
<feBlend mode="normal" in="SourceGraphic" in2="effect2_dropShadow_100_4168" result="shape"/>
</filter>
<clipPath id="clip0_100_4168">
<rect width="157" height="60" fill="white"/>
</clipPath>
</defs>
</svg>
