<svg width="307" height="86" viewBox="0 0 307 86" fill="none" xmlns="http://www.w3.org/2000/svg">
<g clip-path="url(#clip0_100_4168)">
<path d="M127.804 43C127.804 55.7025 117.507 66 104.804 66C92.1014 66 81.804 55.7025 81.804 43C81.804 30.2975 92.1014 20 104.804 20C117.507 20 127.804 30.2975 127.804 43Z" fill="#FD853A"/>
<g filter="url(#filter0_dd_100_4168)">
<path d="M89.5546 47L98.2014 27.6H102.636L111.31 47H106.599L99.504 29.8725H101.278L94.1551 47H89.5546ZM93.878 42.8428L95.0697 39.434H105.047L106.266 42.8428H93.878Z" fill="white"/>
<path d="M109.679 59.3325C108.368 59.3325 107.157 59.0924 106.049 58.612C104.959 58.1131 104.063 57.411 103.361 56.5057L105.855 53.5125C106.391 54.2146 106.954 54.7505 107.545 55.12C108.137 55.471 108.774 55.6465 109.458 55.6465C111.287 55.6465 112.201 54.5749 112.201 52.4317V43.2028H105.384V39.6H116.663V52.1823C116.663 54.5842 116.072 56.3764 114.89 57.5588C113.707 58.7413 111.971 59.3325 109.679 59.3325Z" fill="white"/>
</g>
<path d="M208.013 52.7V33.3H216.411C218.147 33.3 219.644 33.5864 220.9 34.1591C222.157 34.7134 223.127 35.5171 223.81 36.5703C224.494 37.6234 224.836 38.8798 224.836 40.3394C224.836 41.7806 224.494 43.0277 223.81 44.0808C223.127 45.1155 222.157 45.91 220.9 46.4643C219.644 47.0186 218.147 47.2957 216.411 47.2957H210.508L212.503 45.328V52.7H208.013ZM220.346 52.7L215.496 45.6606H220.291L225.196 52.7H220.346ZM212.503 45.8268L210.508 43.7206H216.161C217.547 43.7206 218.582 43.4249 219.265 42.8337C219.949 42.224 220.291 41.3926 220.291 40.3394C220.291 39.2678 219.949 38.4364 219.265 37.8451C218.582 37.2539 217.547 36.9583 216.161 36.9583H210.508L212.503 34.8243V45.8268Z" fill="white"/>
<path d="M184.661 52.7L193.307 33.3H197.742L206.416 52.7H201.705L194.61 35.5726H196.384L189.261 52.7H184.661ZM188.984 48.5428L190.176 45.134H200.153L201.372 48.5428H188.984Z" fill="white"/>
<path d="M161.157 52.7V33.3H164.87L173.129 46.9908H171.161L179.282 33.3H182.968L183.023 52.7H178.811L178.783 39.7574H179.559L173.074 50.6491H171.051L164.427 39.7574H165.369V52.7H161.157Z" fill="white"/>
<path d="M137.804 52.7L146.451 33.3H150.885L159.56 52.7H154.848L147.753 35.5726H149.527L142.405 52.7H137.804ZM142.127 48.5428L143.319 45.134H153.296L154.516 48.5428H142.127Z" fill="white"/>
</g>
<defs>
<filter id="filter0_dd_100_4168" x="85.5546" y="27.6" width="35.1089" height="39.7325" filterUnits="userSpaceOnUse" color-interpolation-filters="sRGB">
<feFlood flood-opacity="0" result="BackgroundImageFix"/>
<feColorMatrix in="SourceAlpha" type="matrix" values="0 0 0 0 0 0 0 0 0 0 0 0 0 0 0 0 0 0 127 0" result="hardAlpha"/>
<feOffset dy="4"/>
<feGaussianBlur stdDeviation="2"/>
<feComposite in2="hardAlpha" operator="out"/>
<feColorMatrix type="matrix" values="0 0 0 0 0 0 0 0 0 0 0 0 0 0 0 0 0 0 0.25 0"/>
<feBlend mode="normal" in2="BackgroundImageFix" result="effect1_dropShadow_100_4168"/>
<feColorMatrix in="SourceAlpha" type="matrix" values="0 0 0 0 0 0 0 0 0 0 0 0 0 0 0 0 0 0 127 0" result="hardAlpha"/>
<feOffset dy="4"/>
<feGaussianBlur stdDeviation="2"/>
<feComposite in2="hardAlpha" operator="out"/>
<feColorMatrix type="matrix" values="0 0 0 0 0 0 0 0 0 0 0 0 0 0 0 0 0 0 0.25 0"/>
<feBlend mode="normal" in2="effect1_dropShadow_100_4168" result="effect2_dropShadow_100_4168"/>
<feBlend mode="normal" in="SourceGraphic" in2="effect2_dropShadow_100_4168" result="shape"/>
</filter>
<clipPath id="clip0_100_4168">
<rect width="307" height="86" fill="white"/>
</clipPath>
</defs>
</svg>
