<svg width="100" height="100" viewBox="0 0 128 128" fill="none" xmlns="http://www.w3.org/2000/svg">
<path d="M84.8532 65.9734H109.867C109.44 90.8801 104.533 94.9868 89.2266 104.053C87.4666 105.12 86.8799 107.36 87.9466 109.173C89.0132 110.933 91.2532 111.52 93.0666 110.453C111.093 99.7868 117.387 93.2801 117.387 62.2401V33.4934C117.387 24.3734 109.973 17.0134 100.907 17.0134H84.9066C75.5199 17.0134 68.4266 24.1068 68.4266 33.4934V49.4934C68.3732 58.8801 75.4666 65.9734 84.8532 65.9734Z" fill="#667085" fill-opacity="0.3"/>
<path d="M27.1465 65.9734H52.1598C51.7332 90.8801 46.8265 94.9868 31.5198 104.053C29.7598 105.12 29.1732 107.36 30.2398 109.173C31.3065 110.933 33.5465 111.52 35.3598 110.453C53.3865 99.7868 59.6798 93.2801 59.6798 62.2401V33.4934C59.6798 24.3734 52.2665 17.0134 43.1998 17.0134H27.1998C17.7598 17.0134 10.6665 24.1068 10.6665 33.4934V49.4934C10.6665 58.8801 17.7598 65.9734 27.1465 65.9734Z" fill="#667085" fill-opacity="0.3"/>
</svg>
