<svg width="32" height="33" viewBox="0 0 32 33" fill="none" xmlns="http://www.w3.org/2000/svg">
<path d="M23.8912 19.9282C23.5459 20.2629 23.3872 20.7469 23.4659 21.2215L24.6512 27.7815C24.7512 28.3375 24.5165 28.9002 24.0512 29.2215C23.5952 29.5549 22.9885 29.5949 22.4912 29.3282L16.5859 26.2482C16.3805 26.1389 16.1525 26.0802 15.9192 26.0735H15.5579C15.4325 26.0922 15.3099 26.1322 15.1979 26.1935L9.29118 29.2882C8.99918 29.4349 8.66852 29.4869 8.34452 29.4349C7.55518 29.2855 7.02852 28.5335 7.15785 27.7402L8.34452 21.1802C8.42318 20.7015 8.26452 20.2149 7.91918 19.8749L3.10452 15.2082C2.70185 14.8175 2.56185 14.2309 2.74585 13.7015C2.92452 13.1735 3.38052 12.7882 3.93118 12.7015L10.5579 11.7402C11.0619 11.6882 11.5045 11.3815 11.7312 10.9282L14.6512 4.94155C14.7205 4.80821 14.8099 4.68555 14.9179 4.58155L15.0378 4.48821C15.1005 4.41888 15.1725 4.36155 15.2525 4.31488L15.3979 4.26155L15.6245 4.16821H16.1858C16.6872 4.22021 17.1285 4.52021 17.3592 4.96821L20.3179 10.9282C20.5312 11.3642 20.9459 11.6669 21.4245 11.7402L28.0512 12.7015C28.6112 12.7815 29.0792 13.1682 29.2645 13.7015C29.4392 14.2362 29.2885 14.8229 28.8779 15.2082L23.8912 19.9282Z" fill="#FD853A"/>
</svg>
