<svg xmlns="http://www.w3.org/2000/svg" xmlns:xlink="http://www.w3.org/1999/xlink" width="500" zoomAndPan="magnify" viewBox="0 0 375 374.999991" height="500" preserveAspectRatio="xMidYMid meet" version="1.0"><defs><clipPath id="87bb143ce6"><path d="M 75 20.390625 L 375 20.390625 L 375 354.890625 L 75 354.890625 Z M 75 20.390625 " clip-rule="nonzero"/></clipPath><clipPath id="52f1812e93"><path d="M 0 197 L 114 197 L 114 354.890625 L 0 354.890625 Z M 0 197 " clip-rule="nonzero"/></clipPath></defs><g clip-path="url(#87bb143ce6)"><path fill="#4eaee6" d="M 374.972656 354.636719 L 213.453125 20.414062 L 161.546875 20.414062 L 94.675781 158.785156 L 166.644531 161.574219 L 187.5 118.65625 L 244.542969 236.027344 L 205.40625 211.078125 L 169.738281 188.34375 L 179.027344 173.597656 L 75.015625 169.574219 L 123.535156 261.664062 L 132.828125 246.925781 L 200.539062 290.089844 L 301.785156 354.636719 L 302.015625 354.273438 L 302.1875 354.636719 L 374.972656 354.636719 " fill-opacity="1" fill-rule="nonzero"/></g><g clip-path="url(#52f1812e93)"><path fill="#3870c2" d="M 0.0273438 354.636719 L 72.8125 354.636719 L 113.8125 270.277344 L 76.195312 197.027344 L 0.0273438 354.636719 " fill-opacity="1" fill-rule="nonzero"/></g><path fill="#4eaee6" d="M 82.550781 183.875 L 82.246094 184.507812 L 82.898438 184.542969 Z M 82.550781 183.875 " fill-opacity="1" fill-rule="nonzero"/><path fill="#333333" d="M 82.898438 184.542969 L 82.246094 184.507812 L 76.195312 197.027344 L 113.8125 270.277344 L 120.65625 256.195312 L 82.898438 184.542969 " fill-opacity="1" fill-rule="nonzero"/></svg>